<svg xmlns="http://www.w3.org/2000/svg" viewBox="0 0 128 128" role="img" aria-label="PlanetFlow.app favicon">
  <defs>
    <linearGradient id="space" x1="0" x2="1" y1="0" y2="1">
      <stop offset="0%" stop-color="#16120e"/>
      <stop offset="100%" stop-color="#08090b"/>
    </linearGradient>
    <linearGradient id="planet" x1="0" x2="1" y1="0" y2="1">
      <stop offset="0%" stop-color="#f2c46f"/>
      <stop offset="100%" stop-color="#9b6328"/>
    </linearGradient>
    <linearGradient id="flow" x1="0" x2="1" y1="0" y2="1">
      <stop offset="0%" stop-color="#ffe2a8"/>
      <stop offset="100%" stop-color="#df8f32"/>
    </linearGradient>
  </defs>
  <rect width="128" height="128" rx="28" fill="url(#space)"/>
  <circle cx="47" cy="52" r="26" fill="url(#planet)"/>
  <path d="M70 43c18 0 33 6 40 16-9 6-18 10-28 13 4 7 9 14 16 22-18-4-31-12-40-24 11-3 21-8 31-14-6-3-12-5-19-6z" fill="url(#flow)"/>
  <path d="M37 44c7-9 17-12 28-10-6 1-11 5-15 10 4 2 7 5 10 9-10-3-18-6-23-9z" fill="#ffd391" opacity=".72"/>
  <circle cx="92" cy="33" r="3" fill="#f6ead6" opacity=".8"/>
  <circle cx="102" cy="49" r="2" fill="#f6ead6" opacity=".55"/>
  <circle cx="22" cy="28" r="2" fill="#f6ead6" opacity=".4"/>
</svg>
